# xmcd
#
# Track frame offsets: 
#        150
#        19069
#        34698
#        50298
#        63284
#
# Disc length: 1181 seconds
#
# Revision: 0
# Processed by: cddbd v1.5.2PL0 Copyright (c) Steve Scherf et al.
# Submitted via: ExactAudioCopyFreeDBPlugin 1.0
#
DISCID=35049b05
DTITLE=THE DAWLINS - THE DAWLINS
DYEAR=2017
DGENRE=Country
TTITLE0=From Lisbon
TTITLE1=I Don´t Mind
TTITLE2=I Was Born
TTITLE3=Las Lobas
TTITLE4=Paradaís
EXTD=
EXTT0=
EXTT1=
EXTT2=
EXTT3=
EXTT4=
PLAYORDER=
